<svg width="20" height="20" viewBox="0 0 20 20" fill="none" xmlns="http://www.w3.org/2000/svg">
<path d="M17 3.125H3C1.6875 3.125 0.625 4.1875 0.625 5.5V14.5C0.625 15.8125 1.6875 16.875 3 16.875H17C18.3125 16.875 19.375 15.8125 19.375 14.5V5.5C19.375 4.1875 18.3125 3.125 17 3.125ZM18.125 14.5C18.125 15.1188 17.6188 15.625 17 15.625H3C2.38125 15.625 1.875 15.1188 1.875 14.5V5.5C1.875 4.88125 2.38125 4.375 3 4.375H17C17.6188 4.375 18.125 4.88125 18.125 5.5V14.5Z" fill="black"/>
<path d="M6.25 13.125H3.75C3.58424 13.125 3.42527 13.1908 3.30806 13.3081C3.19085 13.4253 3.125 13.5842 3.125 13.75C3.125 13.9158 3.19085 14.0747 3.30806 14.1919C3.42527 14.3092 3.58424 14.375 3.75 14.375H6.25C6.41576 14.375 6.57473 14.3092 6.69194 14.1919C6.80915 14.0747 6.875 13.9158 6.875 13.75C6.875 13.5842 6.80915 13.4253 6.69194 13.3081C6.57473 13.1908 6.41576 13.125 6.25 13.125ZM16.25 6.25H3.75C3.58424 6.25 3.42527 6.31585 3.30806 6.43306C3.19085 6.55027 3.125 6.70924 3.125 6.875C3.125 7.04076 3.19085 7.19973 3.30806 7.31694C3.42527 7.43415 3.58424 7.5 3.75 7.5H16.25C16.4158 7.5 16.5747 7.43415 16.6919 7.31694C16.8092 7.19973 16.875 7.04076 16.875 6.875C16.875 6.70924 16.8092 6.55027 16.6919 6.43306C16.5747 6.31585 16.4158 6.25 16.25 6.25Z" fill="black"/>
</svg>
