<svg width="20" height="20" viewBox="0 0 20 20" fill="none" xmlns="http://www.w3.org/2000/svg">
<g clip-path="url(#clip0_144_11)">
<path d="M10 0C4.48533 0 0 4.48533 0 10C0 15.5147 4.48533 20 10 20C15.5147 20 20 15.5147 20 10C20 4.48533 15.5147 0 10 0ZM10 18C5.58933 18 2 14.4107 2 10C2 5.58933 5.58933 2 10 2C14.4107 2 18 5.58933 18 10C18 14.4107 14.4107 18 10 18Z" fill="black"/>
<path d="M8 7.99998L4.99733 15.0026L12 12L15.0027 4.99731L8 7.99998ZM10 11.0026C9.44533 11.0026 8.99733 10.5546 8.99733 9.99998C8.99733 9.44531 9.44533 8.99731 10 8.99731C10.5547 8.99731 11.0027 9.44531 11.0027 9.99998C11.0027 10.5546 10.5547 11.0026 10 11.0026Z" fill="black"/>
</g>
<defs>
<clipPath id="clip0_144_11">
<rect width="20" height="20" fill="white"/>
</clipPath>
</defs>
</svg>
