<svg width="20" height="20" viewBox="0 0 20 20" fill="none" xmlns="http://www.w3.org/2000/svg">
<g clip-path="url(#clip0_144_15)">
<path d="M17.3714 9.36011V18.2516H2.65144V9.36011H1.28V18.9373C1.28 19.316 1.58695 19.623 1.9657 19.623H18.0571C18.4359 19.623 18.7428 19.316 18.7428 18.9373V9.36011H17.3714Z" fill="black"/>
<path d="M19.3143 4.21692H0.685703C0.306953 4.21692 0 4.52387 0 4.90262V9.38262C0 9.76137 0.306953 10.0683 0.685703 10.0683H19.3143C19.693 10.0683 20 9.76157 20 9.38262V4.90262C20 4.52387 19.693 4.21692 19.3143 4.21692ZM18.6286 8.69715H1.37145V5.5886H18.6286V8.69715H18.6286Z" fill="black"/>
<path d="M10.6747 4.72919C10.6281 4.55138 9.49692 0.377197 6.19427 0.377197C4.75747 0.377197 3.58856 1.5461 3.58856 2.9829C3.58856 4.4197 4.7472 5.5886 6.17141 5.5886H10.0114C10.2238 5.5886 10.4245 5.49009 10.5543 5.32185C10.6841 5.1536 10.7284 4.93466 10.6747 4.72919ZM6.17145 4.2172C5.49216 4.2172 4.96001 3.67501 4.96001 2.9829C4.96001 2.31388 5.52528 1.7486 6.1943 1.7486C7.69899 1.7486 8.60001 3.23091 9.03317 4.21716L6.17145 4.2172Z" fill="black"/>
<path d="M13.8285 0.377197C10.5259 0.377197 9.39472 4.55138 9.34808 4.72919C9.32149 4.83062 9.31852 4.9368 9.3394 5.03956C9.36027 5.14232 9.40445 5.23893 9.46851 5.32194C9.53258 5.40495 9.61484 5.47216 9.70896 5.5184C9.80307 5.56463 9.90654 5.58866 10.0114 5.58864H13.8514C15.2756 5.58864 16.4343 4.41974 16.4343 2.98294C16.4343 1.5461 15.2654 0.377197 13.8285 0.377197ZM13.8514 4.2172H10.987C11.4169 3.23091 12.3152 1.74864 13.8288 1.74864C14.4978 1.74864 15.0631 2.31392 15.0631 2.98294C15.0631 3.67501 14.531 4.2172 13.8514 4.2172Z" fill="black"/>
<path d="M9.3257 4.90295H10.6971V18.9373H9.3257V4.90295Z" fill="black"/>
</g>
<defs>
<clipPath id="clip0_144_15">
<rect width="20" height="20" fill="white"/>
</clipPath>
</defs>
</svg>
