<svg width="20" height="20" viewBox="0 0 20 20" fill="none" xmlns="http://www.w3.org/2000/svg">
<g clip-path="url(#clip0_144_2)">
<path d="M19.4607 8.69902L19.4593 8.69766L11.3009 0.53957C10.9532 0.191602 10.4908 0 9.99907 0C9.50727 0 9.04493 0.191484 8.69704 0.539414L0.542856 8.69336C0.540122 8.69609 0.537387 8.69898 0.534653 8.70176C-0.179488 9.41996 -0.178238 10.5853 0.538169 11.3017C0.865434 11.6291 1.29774 11.8188 1.75993 11.8386C1.77868 11.8405 1.79762 11.8414 1.81668 11.8414H2.14184V17.8453C2.14184 19.0334 3.10848 20 4.29684 20H7.48864C7.81215 20 8.07458 19.7377 8.07458 19.4141V14.707C8.07458 14.1649 8.51559 13.7239 9.05774 13.7239H10.9404C11.4825 13.7239 11.9235 14.1649 11.9235 14.707V19.4141C11.9235 19.7377 12.1858 20 12.5094 20H15.7013C16.8896 20 17.8563 19.0334 17.8563 17.8453V11.8414H18.1578C18.6494 11.8414 19.1118 11.6499 19.4598 11.302C20.177 10.5844 20.1773 9.41711 19.4607 8.69902Z" fill="black"/>
</g>
<defs>
<clipPath id="clip0_144_2">
<rect width="20" height="20" fill="white"/>
</clipPath>
</defs>
</svg>
